<svg xmlns="http://www.w3.org/2000/svg" width="1280" height="420" viewBox="0 0 1280 420" role="img" aria-labelledby="title desc">
  <title id="title">Madrador Film</title>
  <desc id="desc">Banniere bleu violet pour le site Madrador Film</desc>
  <defs>
    <linearGradient id="bg" x1="0" y1="0" x2="1" y2="1">
      <stop offset="0" stop-color="#050716"/>
      <stop offset=".46" stop-color="#10164a"/>
      <stop offset="1" stop-color="#3b0764"/>
    </linearGradient>
    <radialGradient id="glow1" cx=".18" cy=".1" r=".72">
      <stop offset="0" stop-color="#7c3aed" stop-opacity=".7"/>
      <stop offset="1" stop-color="#7c3aed" stop-opacity="0"/>
    </radialGradient>
    <radialGradient id="glow2" cx=".86" cy=".16" r=".56">
      <stop offset="0" stop-color="#38bdf8" stop-opacity=".5"/>
      <stop offset="1" stop-color="#38bdf8" stop-opacity="0"/>
    </radialGradient>
    <linearGradient id="text" x1="0" y1="0" x2="1" y2="0">
      <stop offset="0" stop-color="#ffffff"/>
      <stop offset=".55" stop-color="#dbeafe"/>
      <stop offset="1" stop-color="#c4b5fd"/>
    </linearGradient>
  </defs>
  <rect width="1280" height="420" rx="28" fill="url(#bg)"/>
  <rect width="1280" height="420" rx="28" fill="url(#glow1)"/>
  <rect width="1280" height="420" rx="28" fill="url(#glow2)"/>
  <g opacity=".18" fill="none" stroke="#ffffff">
    <path d="M0 334c188-76 340-76 456 0s292 76 528 0 334-76 296 0"/>
    <path d="M0 96c174 58 328 58 462 0s292-58 474 0 296 58 344 0"/>
  </g>
  <g transform="translate(74 72)">
    <rect width="88" height="88" rx="22" fill="#0b1028" stroke="#60a5fa" stroke-width="2"/>
    <path d="M29 61V27h9l9 18 9-18h9v34h-8V42l-8 16h-5l-8-16v19z" fill="#fff"/>
    <circle cx="68" cy="22" r="7" fill="#8b5cf6"/>
  </g>
  <text x="74" y="230" font-family="Inter, Segoe UI, Arial, sans-serif" font-size="76" font-weight="900" fill="url(#text)">Madrador Film</text>
  <text x="78" y="286" font-family="Inter, Segoe UI, Arial, sans-serif" font-size="28" font-weight="700" fill="#bfdbfe">Catalogue FR, sources Nuvio et lecteur web heberge sur Render</text>
  <g transform="translate(78 326)" font-family="Inter, Segoe UI, Arial, sans-serif" font-size="18" font-weight="800">
    <rect width="132" height="38" rx="19" fill="#111827" stroke="#60a5fa"/>
    <text x="26" y="25" fill="#dbeafe">Films</text>
    <rect x="148" width="132" height="38" rx="19" fill="#111827" stroke="#8b5cf6"/>
    <text x="172" y="25" fill="#ede9fe">Series</text>
    <rect x="296" width="132" height="38" rx="19" fill="#111827" stroke="#38bdf8"/>
    <text x="319" y="25" fill="#cffafe">Animes</text>
  </g>
</svg>
